<svg xmlns="http://www.w3.org/2000/svg" version="1.1" xmlns:xlink="http://www.w3.org/1999/xlink" xmlns:svgjs="http://svgjs.dev/svgjs"  width="308.7612359841165"
   height="304.915625" viewBox="0 0 1000 995"><g transform="matrix(1,0,0,1,0.6253881200086084,0.40286195682028847)"><svg viewBox="0 0 248 247" data-background-color="#ffffff" preserveAspectRatio="xMidYMid meet" height="995" width="1000" xmlns="http://www.w3.org/2000/svg" xmlns:xlink="http://www.w3.org/1999/xlink"><g id="tight-bounds" transform="matrix(1,0,0,1,-0.15509625376213876,-0.0999930619752547)"><svg viewBox="0 0 248.31017964071856 247.2" height="247.2" width="248.31017964071856"><g><svg viewBox="0 0 248.31017964071856 247.2" height="247.2" width="248.31017964071856"><g><svg viewBox="0 0 248.31017964071856 247.2" height="247.2" width="248.31017964071856"><g id="textblocktransform">
<svg viewBox="0 0 248.31017964071856 247.2" height="247.2" width="248.31017964071856" id="textblock"><g><svg viewBox="0 0 248.31017964071856 247.2" height="247.2" width="248.31017964071856"><g transform="matrix(1,0,0,1,0,0)"><svg width="248.31017964071856" viewBox="1.2699999809265137 -32.41999816894531 32.7599983215332 32.619998931884766" height="247.2" data-palette-color="#ee3e38"><path d="M8.59-32.18L8.59-32.18Q8.59-32.18 17.09-32.18L17.09-32.18Q25.05-32.18 29.54-27.47 34.03-22.75 34.03-16.41L34.03-16.41Q34.03-9.38 29.49-4.61 24.95 0.15 17.04 0.15L17.04 0.15Q16.11 0.15 13.23 0.02 10.35-0.1 8.64-0.1L8.64-0.1 1.51 0.2Q1.32 0 1.32-0.63L1.32-0.63Q1.32-1.61 1.51-1.61L1.51-1.61Q2.1-1.61 3.34-1.95 4.59-2.29 4.74-2.69L4.74-2.69Q5.03-3.81 5.03-6.98L5.03-6.98 5.03-25.44Q5.03-28.13 4.74-29.25L4.74-29.25Q4.59-29.64 3.3-30.13 2-30.62 1.46-30.62L1.46-30.62Q1.27-30.62 1.27-31.49L1.27-31.49Q1.27-32.28 1.42-32.42L1.42-32.42Q5.32-32.18 8.59-32.18ZM11.87-25.59L11.87-25.59 11.87-6.64Q11.87-3.47 12.3-3.22L12.3-3.22Q13.38-2.59 17.82-2.59L17.82-2.59Q21.92-2.59 24.17-6.1 26.42-9.62 26.42-16.6L26.42-16.6Q26.42-21.97 24.05-25.71 21.68-29.44 17.48-29.44L17.48-29.44 17.24-29.44Q13.09-29.44 12.5-28.66L12.5-28.66Q11.87-27.78 11.87-25.59Z" opacity="1" transform="matrix(1,0,0,1,0,0)" fill="#ee3e38" class="undefined-text-0" data-fill-palette-color="primary" id="text-0"></path></svg></g></svg></g></svg></g></svg></g><g></g></svg></g><defs></defs></svg><rect width="248.31017964071856" height="247.2" fill="none" stroke="none" visibility="hidden"></rect></g></svg></g></svg>